<?xml version="1.0" standalone="no"?>
<svg xmlns:xlink="http://www.w3.org/1999/xlink" id="wave" style="transform:rotate(180deg); transition: 0.3s" viewBox="0 0 1440 380" version="1.1" xmlns="http://www.w3.org/2000/svg"><defs><linearGradient id="sw-gradient-0" x1="0" x2="0" y1="1" y2="0"><stop stop-color="rgba(243, 106, 62, 1)" offset="0%"/><stop stop-color="rgba(255, 179, 11, 1)" offset="100%"/></linearGradient></defs><path style="transform:translate(0, 0px); opacity:1" fill="url(#sw-gradient-0)" d="M0,190L80,158.3C160,127,320,63,480,31.7C640,0,800,0,960,38C1120,76,1280,152,1440,177.3C1600,203,1760,177,1920,139.3C2080,101,2240,51,2400,31.7C2560,13,2720,25,2880,63.3C3040,101,3200,165,3360,177.3C3520,190,3680,152,3840,120.3C4000,89,4160,63,4320,44.3C4480,25,4640,13,4800,38C4960,63,5120,127,5280,133C5440,139,5600,89,5760,63.3C5920,38,6080,38,6240,63.3C6400,89,6560,139,6720,183.7C6880,228,7040,266,7200,266C7360,266,7520,228,7680,215.3C7840,203,8000,215,8160,234.3C8320,253,8480,279,8640,291.3C8800,304,8960,304,9120,291.3C9280,279,9440,253,9600,228C9760,203,9920,177,10080,158.3C10240,139,10400,127,10560,107.7C10720,89,10880,63,11040,50.7C11200,38,11360,38,11440,38L11520,38L11520,380L11440,380C11360,380,11200,380,11040,380C10880,380,10720,380,10560,380C10400,380,10240,380,10080,380C9920,380,9760,380,9600,380C9440,380,9280,380,9120,380C8960,380,8800,380,8640,380C8480,380,8320,380,8160,380C8000,380,7840,380,7680,380C7520,380,7360,380,7200,380C7040,380,6880,380,6720,380C6560,380,6400,380,6240,380C6080,380,5920,380,5760,380C5600,380,5440,380,5280,380C5120,380,4960,380,4800,380C4640,380,4480,380,4320,380C4160,380,4000,380,3840,380C3680,380,3520,380,3360,380C3200,380,3040,380,2880,380C2720,380,2560,380,2400,380C2240,380,2080,380,1920,380C1760,380,1600,380,1440,380C1280,380,1120,380,960,380C800,380,640,380,480,380C320,380,160,380,80,380L0,380Z"/></svg>