<?xml version="1.0" standalone="no"?>
<svg xmlns:xlink="http://www.w3.org/1999/xlink" id="wave" style="transform:rotate(180deg); transition: 0.3s" viewBox="0 0 1440 380" version="1.1" xmlns="http://www.w3.org/2000/svg"><defs><linearGradient id="sw-gradient-0" x1="0" x2="0" y1="1" y2="0"><stop stop-color="rgba(243, 106, 62, 1)" offset="0%"/><stop stop-color="rgba(255, 179, 11, 1)" offset="100%"/></linearGradient></defs><path style="transform:translate(0, 0px); opacity:1" fill="url(#sw-gradient-0)" d="M0,76L80,101.3C160,127,320,177,480,171C640,165,800,101,960,76C1120,51,1280,63,1440,82.3C1600,101,1760,127,1920,120.3C2080,114,2240,76,2400,76C2560,76,2720,114,2880,107.7C3040,101,3200,51,3360,82.3C3520,114,3680,228,3840,272.3C4000,317,4160,291,4320,291.3C4480,291,4640,317,4800,285C4960,253,5120,165,5280,107.7C5440,51,5600,25,5760,57C5920,89,6080,177,6240,228C6400,279,6560,291,6720,272.3C6880,253,7040,203,7200,209C7360,215,7520,279,7680,278.7C7840,279,8000,215,8160,183.7C8320,152,8480,152,8640,152C8800,152,8960,152,9120,158.3C9280,165,9440,177,9600,171C9760,165,9920,139,10080,139.3C10240,139,10400,165,10560,190C10720,215,10880,241,11040,266C11200,291,11360,317,11440,329.3L11520,342L11520,380L11440,380C11360,380,11200,380,11040,380C10880,380,10720,380,10560,380C10400,380,10240,380,10080,380C9920,380,9760,380,9600,380C9440,380,9280,380,9120,380C8960,380,8800,380,8640,380C8480,380,8320,380,8160,380C8000,380,7840,380,7680,380C7520,380,7360,380,7200,380C7040,380,6880,380,6720,380C6560,380,6400,380,6240,380C6080,380,5920,380,5760,380C5600,380,5440,380,5280,380C5120,380,4960,380,4800,380C4640,380,4480,380,4320,380C4160,380,4000,380,3840,380C3680,380,3520,380,3360,380C3200,380,3040,380,2880,380C2720,380,2560,380,2400,380C2240,380,2080,380,1920,380C1760,380,1600,380,1440,380C1280,380,1120,380,960,380C800,380,640,380,480,380C320,380,160,380,80,380L0,380Z"/></svg>